<?xml version="1.0" encoding="utf-8"?>
<!-- Generator: Adobe Illustrator 23.1.0, SVG Export Plug-In . SVG Version: 6.00 Build 0)  -->
<svg version="1.1" id="Layer_1" xmlns="http://www.w3.org/2000/svg" xmlns:xlink="http://www.w3.org/1999/xlink" x="0px" y="0px"
	 viewBox="0 0 1920 246" style="enable-background:new 0 0 1920 246;" xml:space="preserve">
<style type="text/css">
	.st0{opacity:0.79;}
	.st1{fill:#71C55D;}
	.st2{opacity:0.35;}
	.st3{opacity:0.07;}
	.st4{opacity:0.39;}
	.st5{opacity:0.56;}
	.st6{opacity:0.46;}
	.st7{opacity:0.78;}
</style>
<g class="st0">
	<polygon class="st1" points="112.25,329.29 -32.98,313.28 -91.74,179.49 -5.25,61.71 139.98,77.72 198.74,211.51 	"/>
</g>
<g class="st2">
	<polygon class="st1" points="228.25,279.29 83.02,263.28 24.26,129.49 110.75,11.71 255.98,27.72 314.74,161.51 	"/>
</g>
<g class="st3">
	<polygon class="st1" points="301.67,279.39 242.54,272.87 218.62,218.4 253.83,170.46 312.96,176.97 336.88,231.44 	"/>
</g>
<g class="st2">
	<polygon class="st1" points="455.11,339.01 342.27,326.57 296.62,222.62 363.81,131.12 476.66,143.56 522.31,247.5 	"/>
</g>
<g class="st3">
	<polygon class="st1" points="619.4,383.91 469.96,367.44 409.51,229.79 498.5,108.61 647.93,125.08 708.39,262.73 	"/>
</g>
<g class="st2">
	<polygon class="st1" points="718.16,280.25 652.87,273.05 626.46,212.9 665.34,159.96 730.63,167.16 757.04,227.3 	"/>
</g>
<g class="st3">
	<polygon class="st1" points="688.16,205.25 622.87,198.05 596.46,137.9 635.34,84.96 700.63,92.16 727.04,152.3 	"/>
</g>
<g class="st3">
	<polygon class="st1" points="799.16,295.25 733.87,288.05 707.46,227.9 746.34,174.96 811.63,182.16 838.04,242.3 	"/>
</g>
<g class="st3">
	<polygon class="st1" points="887.44,274.81 808.48,266.1 776.53,193.36 823.55,129.32 902.52,138.03 934.47,210.77 	"/>
</g>
<g class="st4">
	<polygon class="st1" points="978.5,445.52 860.95,362.3 874.25,218.9 1005.08,158.71 1122.63,241.93 1109.33,385.33 	"/>
</g>
<g class="st5">
	<polygon class="st1" points="1302.5,389.52 1184.95,306.3 1198.25,162.9 1329.08,102.71 1446.63,185.93 1433.33,329.33 	"/>
</g>
<g class="st3">
	<polygon class="st1" points="1527.5,458.52 1409.95,375.3 1423.25,231.9 1554.08,171.71 1671.63,254.93 1658.33,398.33 	"/>
</g>
<g class="st6">
	<polygon class="st1" points="1704.5,458.52 1586.95,375.3 1600.25,231.9 1731.08,171.71 1848.63,254.93 1835.33,398.33 	"/>
</g>
<g class="st7">
	<polygon class="st1" points="1890.5,445.52 1772.95,362.3 1786.25,218.9 1917.08,158.71 2034.63,241.93 2021.33,385.33 	"/>
</g>
<g class="st3">
	<polygon class="st1" points="1164.5,488.52 1046.95,405.3 1060.25,261.9 1191.08,201.71 1308.63,284.93 1295.33,428.33 	"/>
</g>
</svg>
